<?xml version="1.0" encoding="UTF-8" standalone="no"?>
<!-- Created with Inkscape (http://www.inkscape.org/) -->

<svg
   width="230.02608mm"
   height="74.372185mm"
   viewBox="0 0 230.02608 74.372185"
   version="1.1"
   id="svg476"
   xml:space="preserve"
   inkscape:version="1.2 (dc2aedaf03, 2022-05-15)"
   sodipodi:docname="Metro de Soria.svg"
   xmlns:inkscape="http://www.inkscape.org/namespaces/inkscape"
   xmlns:sodipodi="http://sodipodi.sourceforge.net/DTD/sodipodi-0.dtd"
   xmlns="http://www.w3.org/2000/svg"
   xmlns:svg="http://www.w3.org/2000/svg"><sodipodi:namedview
     id="namedview478"
     pagecolor="#ffffff"
     bordercolor="#999999"
     borderopacity="1"
     inkscape:showpageshadow="0"
     inkscape:pageopacity="0"
     inkscape:pagecheckerboard="0"
     inkscape:deskcolor="#d1d1d1"
     inkscape:document-units="mm"
     showgrid="false"
     inkscape:zoom="0.69691087"
     inkscape:cx="1608.5271"
     inkscape:cy="481.4102"
     inkscape:window-width="1920"
     inkscape:window-height="991"
     inkscape:window-x="-9"
     inkscape:window-y="-9"
     inkscape:window-maximized="1"
     inkscape:current-layer="layer5"
     showguides="false" /><defs
     id="defs473"><rect
       x="510.5311"
       y="52.518749"
       width="319.53253"
       height="156.33488"
       id="rect17231" /></defs><g
     id="g1973"
     inkscape:label="METRO DE SORIA PLANO"
     transform="translate(-312.11641,-115.83326)"><g
       inkscape:groupmode="layer"
       id="layer5"
       inkscape:label="LOGO METRO SORIA"
       transform="translate(25.679662,-8.7e-5)"
       style="display:inline"><g
         id="g386-0-0"
         transform="matrix(0.99997032,0,0,0.99997032,0.00949522,105.83364)"
         style="display:inline"><path
           id="path4361-2-6"
           style="fill:#70ccd5;fill-opacity:1;stroke:none;stroke-width:2;stroke-dasharray:none;stroke-opacity:1"
           d="m 332.76139,-10.06671 c -8.28437,-7.2e-5 -15.00019,6.7157519 -15.00012,15.0001179 l 10e-5,54.9999011 10,-1e-5 -1.9e-4,-54.9998911 c -1.2e-4,-2.761591 2.23862,-5.00033304 5.00021,-5.00021104 2.76159,-1.22e-4 5.00033,2.23862004 5.00021,5.00021104 l -2.3e-4,54.9998911 h 10 l 1.4e-4,-54.9998911 c 7e-5,-8.284366 -6.71575,-15.0001899 -15.00012,-15.0001179 z"
           sodipodi:nodetypes="ccccccccccc"
           transform="translate(8.6745686,20.066709)" /><path
           id="path4361-4-8-5"
           style="fill:#0097a7;fill-opacity:1;stroke:none;stroke-width:2;stroke-dasharray:none;stroke-opacity:1"
           d="m 312.7613,-10.066712 c -8.28437,-7.2e-5 -15.00019,6.7157519 -15.00012,15.0001179 l 10e-5,54.9999031 10,-1e-5 -1.9e-4,-54.9998931 c -1.2e-4,-2.761591 2.23862,-5.00033304 5.00021,-5.00021104 2.76159,-1.22e-4 5.00033,2.23862004 5.00021,5.00021104 l -2.3e-4,54.9998931 h 10 l 1.4e-4,-54.9998931 c 7e-5,-8.284366 -6.71575,-15.0001899 -15.00012,-15.0001179 z"
           sodipodi:nodetypes="ccccccccccc"
           transform="translate(8.6745686,20.066709)" /><path
           id="path4361-9-6-3"
           style="fill:#214478;fill-opacity:1;stroke:none;stroke-width:2;stroke-dasharray:none;stroke-opacity:1"
           d="m 292.7613,-10.066706 c -8.28437,-7.2e-5 -15.00019,6.7157519 -15.00012,15.0001179 l 10e-5,54.9999071 10,-10e-6 -1.9e-4,-54.9998971 c -1.2e-4,-2.761591 2.23862,-5.00033304 5.00021,-5.00021104 2.76159,-1.22e-4 5.00033,2.23862004 5.00021,5.00021104 l -2.3e-4,54.9998971 h 10 l 1.4e-4,-54.9998971 c 7e-5,-8.284366 -6.71575,-15.0001899 -15.00012,-15.0001179 z"
           sodipodi:nodetypes="ccccccccccc"
           transform="translate(8.6745686,20.066709)" /></g><g
         aria-label="Metro de Soria"
         transform="matrix(4.4897187,0,0,4.4897187,-1922.9872,-97.575863)"
         id="text17229-2"
         style="font-size:13.3333px;line-height:0;font-family:DIN;-inkscape-font-specification:DIN;white-space:pre;shape-inside:url(#rect17231);display:inline;fill:#1a1a1a;stroke-width:7.55906"><path
           d="m 519.0347,56.936665 h -1.76063 v -5.256556 l -1.72263,3.419928 h -1.19064 l -1.7353,-3.419928 v 5.256556 h -1.76063 v -9.018477 h 1.7353 l 2.35595,4.876564 2.34328,-4.876564 h 1.7353 z"
           style="font-size:12.6664px;letter-spacing:-0.263884px"
           id="path20083-5" /><path
           d="m 526.14786,54.150057 h -4.12924 q 0,0.658652 0.37999,1.063977 0.39266,0.405325 1.06398,0.405325 0.87398,0 1.49463,-0.620654 l 1.00065,0.975313 q -0.54466,0.544655 -1.06398,0.772651 -0.59532,0.265994 -1.44397,0.265994 -3.0526,0 -3.0526,-3.381929 0,-1.5833 0.79798,-2.495281 0.77265,-0.873981 2.07729,-0.873981 1.34264,0 2.12796,0.899314 0.74731,0.861315 0.74731,2.254619 z m -1.6213,-1.12731 q -0.0127,-0.405325 -0.15199,-0.709318 -0.304,-0.683986 -1.10198,-0.683986 -0.79798,0 -1.10198,0.683986 -0.13933,0.303993 -0.15199,0.709318 z"
           style="font-size:12.6664px;letter-spacing:-0.263884px"
           id="path20085-6" /><path
           d="m 530.38803,56.936665 h -0.89932 q -0.93731,0 -1.45663,-0.595321 -0.45599,-0.519323 -0.45599,-1.291973 V 51.78144 h -0.69665 v -1.253974 h 0.69665 v -1.950625 h 1.64663 v 1.950625 h 1.16531 v 1.253974 h -1.16531 v 3.1666 q 0,0.595321 0.56999,0.595321 h 0.59532 z"
           style="font-size:12.6664px;letter-spacing:-0.263884px"
           id="path20087-8" /><path
           d="m 536.53013,50.882125 -1.24131,1.253974 q -0.39266,-0.392658 -0.87398,-0.392658 -0.41799,0 -0.72198,0.291327 -0.342,0.341993 -0.342,0.924647 v 3.97725 h -1.64663 V 50.33747 h 1.60863 v 0.63332 q 0.59532,-0.709318 1.6593,-0.709318 0.93732,0 1.55797,0.620653 z"
           style="font-size:12.6664px;letter-spacing:-0.263884px"
           id="path20089-7" /><path
           d="m 542.42532,53.630734 q 0,0.94998 -0.152,1.507302 -0.16466,0.620653 -0.59532,1.063977 -0.77265,0.81065 -2.05196,0.81065 -1.26664,0 -2.03929,-0.81065 -0.43065,-0.443324 -0.59532,-1.063977 -0.15199,-0.557322 -0.15199,-1.507302 0,-1.773296 0.75998,-2.571279 0.75998,-0.797983 2.02662,-0.797983 1.27931,0 2.0393,0.797983 0.75998,0.797983 0.75998,2.571279 z m -1.64663,0 q 0,-1.215974 -0.37999,-1.595966 -0.29133,-0.291327 -0.77266,-0.291327 -0.46865,0 -0.75998,0.291327 -0.37999,0.379992 -0.37999,1.595966 0,1.228641 0.37999,1.608633 0.29133,0.291327 0.75998,0.291327 0.48133,0 0.77266,-0.291327 0.37999,-0.379992 0.37999,-1.608633 z"
           style="font-size:12.6664px;letter-spacing:-0.263884px"
           id="path20091-0" /><path
           d="m 513.72361,63.084812 h -0.8308 v -0.320545 q -0.32054,0.359795 -0.84388,0.359795 -0.52988,0 -0.83734,-0.307461 -0.22896,-0.228961 -0.30092,-0.654173 -0.0458,-0.261669 -0.0458,-0.785008 0,-0.516796 0.0458,-0.778465 0.072,-0.425213 0.30092,-0.654173 0.30746,-0.307462 0.8308,-0.307462 0.52334,0 0.8308,0.34017 V 58.4271 h 0.85042 z m -0.85042,-1.707392 q 0,-0.484088 -0.0981,-0.693423 -0.13083,-0.281294 -0.48408,-0.281294 -0.37288,0 -0.50372,0.327086 -0.072,0.196252 -0.072,0.647631 0,0.45138 0.072,0.647632 0.13084,0.333628 0.50372,0.333628 0.35325,0 0.48408,-0.281294 0.0981,-0.215878 0.0981,-0.699966 z"
           style="font-size:6.54173px;line-height:2.5"
           id="path20093-2" /><path
           d="m 517.47857,61.645631 h -2.1326 q 0,0.34017 0.19625,0.549506 0.20279,0.209335 0.54951,0.209335 0.45138,0 0.77192,-0.320545 l 0.5168,0.503713 q -0.2813,0.281295 -0.54951,0.399046 -0.30746,0.137376 -0.74576,0.137376 -1.57655,0 -1.57655,-1.746642 0,-0.817716 0.41213,-1.28872 0.39904,-0.45138 1.07284,-0.45138 0.69342,0 1.09901,0.464463 0.38596,0.444838 0.38596,1.164428 z m -0.83734,-0.582214 q -0.007,-0.209335 -0.0785,-0.366337 -0.157,-0.353253 -0.56913,-0.353253 -0.41213,0 -0.56913,0.353253 -0.072,0.157002 -0.0785,0.366337 z"
           style="font-size:6.54173px;line-height:2.5"
           id="path20095-8" /><path
           d="m 522.85588,61.711049 q 0,0.660714 -0.49063,1.040135 -0.48409,0.372878 -1.23639,0.372878 -1.09247,0 -1.70085,-0.614922 l 0.58876,-0.588756 q 0.3925,0.392504 1.12518,0.392504 0.82425,0 0.82425,-0.575672 0,-0.26167 -0.13737,-0.385963 -0.13738,-0.130834 -0.41867,-0.170084 l -0.56259,-0.0785 q -1.23639,-0.170085 -1.23639,-1.301805 0,-0.634547 0.4383,-1.020509 0.43829,-0.392504 1.18405,-0.392504 0.94201,0 1.5046,0.542963 l -0.57567,0.569131 q -0.33363,-0.320545 -0.9551,-0.320545 -0.34671,0 -0.53642,0.170085 -0.18317,0.163543 -0.18317,0.418671 0,0.202793 0.14392,0.34017 0.15046,0.137376 0.42521,0.176627 l 0.54951,0.0785 q 0.5953,0.08504 0.88967,0.359795 0.3598,0.34017 0.3598,0.987802 z"
           style="font-size:6.54173px;line-height:2.5"
           id="path20097-8" /><path
           d="m 526.38841,61.37742 q 0,0.49063 -0.0785,0.778466 -0.085,0.320545 -0.30746,0.549506 -0.39905,0.41867 -1.05976,0.41867 -0.65418,0 -1.05322,-0.41867 -0.22242,-0.228961 -0.30746,-0.549506 -0.0785,-0.287836 -0.0785,-0.778466 0,-0.915842 0.3925,-1.327971 0.3925,-0.412129 1.04668,-0.412129 0.66071,0 1.05322,0.412129 0.3925,0.412129 0.3925,1.327971 z m -0.85042,0 q 0,-0.628006 -0.19626,-0.824258 -0.15046,-0.150459 -0.39904,-0.150459 -0.24205,0 -0.39251,0.150459 -0.19625,0.196252 -0.19625,0.824258 0,0.634548 0.19625,0.8308 0.15046,0.15046 0.39251,0.15046 0.24858,0 0.39904,-0.15046 0.19626,-0.196252 0.19626,-0.8308 z"
           style="font-size:6.54173px;line-height:2.5"
           id="path20099-5" /><path
           d="m 529.69198,59.957865 -0.64109,0.647631 q -0.20279,-0.202793 -0.45138,-0.202793 -0.21588,0 -0.37288,0.150459 -0.17662,0.176627 -0.17662,0.477547 v 2.054103 h -0.85043 v -3.408241 h 0.8308 v 0.327086 q 0.30746,-0.366337 0.85697,-0.366337 0.48409,0 0.80463,0.320545 z"
           style="font-size:6.54173px;line-height:2.5"
           id="path20101-3" /><path
           d="m 531.03303,59.094357 h -0.87005 v -0.693424 h 0.87005 z m -0.007,3.990455 h -0.85042 v -3.408241 h 0.85042 z"
           style="font-size:6.54173px;line-height:2.5"
           id="path20103-6" /><path
           d="m 534.55248,63.084812 h -0.8308 v -0.294378 q -0.32708,0.327087 -0.83734,0.327087 -0.57567,0 -0.86351,-0.294378 -0.28783,-0.294378 -0.28783,-0.771924 0,-0.431755 0.29437,-0.706507 0.30092,-0.281295 0.87005,-0.281295 h 0.80464 v -0.170085 q 0,-0.536421 -0.63455,-0.536421 -0.41213,0 -0.65417,0.281294 l -0.54297,-0.52988 q 0.24205,-0.268211 0.52988,-0.372879 0.26167,-0.09813 0.69997,-0.09813 1.45226,0 1.45226,1.203679 z M 533.70206,61.8288 v -0.183169 h -0.6738 q -0.47755,0 -0.47755,0.385962 0,0.392504 0.49063,0.392504 0.4383,0 0.58222,-0.215877 0.0785,-0.117751 0.0785,-0.37942 z"
           style="font-size:6.54173px;line-height:2.5"
           id="path20105-9" /></g></g></g></svg>
